<?xml version="1.0" standalone="no"?>
<!DOCTYPE svg PUBLIC "-//W3C//DTD SVG 20010904//EN"
 "http://www.w3.org/TR/2001/REC-SVG-20010904/DTD/svg10.dtd">
<svg version="1.0" xmlns="http://www.w3.org/2000/svg"
 width="512.000000pt" height="512.000000pt" viewBox="0 0 512.000000 512.000000"
 preserveAspectRatio="xMidYMid meet">
<metadata>
Created by potrace 1.11, written by Peter Selinger 2001-2013
</metadata>
<g transform="translate(0.000000,512.000000) scale(0.100000,-0.100000)"
fill="#000000" stroke="none">
<path d="M2353 5031 c-54 -14 -121 -60 -151 -104 -51 -74 -55 -101 -55 -373
l-1 -251 -80 -24 c-109 -31 -251 -89 -354 -145 -46 -25 -88 -44 -93 -42 -4 2
-88 82 -186 179 -102 101 -195 184 -218 195 -57 27 -185 26 -239 -2 -21 -11
-99 -81 -172 -155 -155 -154 -179 -196 -172 -304 6 -94 32 -133 225 -326 l176
-177 -66 -130 c-56 -112 -122 -287 -141 -373 l-6 -26 -222 1 c-243 1 -312 -4
-363 -28 -46 -22 -99 -76 -127 -128 -22 -41 -23 -53 -23 -258 0 -202 1 -217
22 -256 30 -56 84 -107 140 -134 46 -22 60 -23 310 -23 l262 -1 7 -31 c23
-108 141 -390 193 -463 l20 -28 -178 -178 c-208 -208 -226 -235 -226 -346 0
-107 20 -142 170 -291 152 -152 190 -174 296 -174 110 0 136 17 344 225 l179
179 25 -18 c72 -51 316 -156 422 -182 30 -7 59 -16 65 -21 7 -5 11 -91 11
-256 0 -172 4 -261 13 -288 20 -63 74 -127 132 -160 l53 -29 215 0 c205 0 217
1 258 23 47 25 89 63 113 102 37 58 42 100 43 349 1 135 5 252 9 259 5 6 16
12 26 12 17 0 138 37 206 63 17 7 86 40 155 75 68 34 127 61 131 60 4 -2 90
-85 192 -185 172 -170 187 -182 242 -198 74 -22 149 -16 209 16 26 13 105 82
176 153 142 142 170 188 170 285 0 103 -17 130 -221 336 -178 181 -187 191
-172 210 29 37 130 259 158 345 15 47 32 101 39 120 l12 35 249 1 c261 1 299
6 360 47 40 27 73 64 98 112 21 37 22 54 22 255 0 203 -1 217 -22 257 -26 48
-55 80 -98 110 -61 41 -99 46 -359 47 -211 1 -250 3 -256 16 -4 8 -18 49 -30
90 -33 113 -66 194 -128 313 l-56 107 176 178 c101 101 186 195 198 220 33 63
37 153 11 222 -17 46 -43 78 -155 189 -73 74 -151 144 -172 155 -58 31 -183
29 -244 -2 -27 -14 -116 -94 -222 -199 l-176 -176 -129 63 c-70 35 -137 67
-148 72 -86 33 -131 50 -135 49 -3 0 -30 6 -60 15 l-56 15 1 222 c0 313 -9
360 -80 430 -79 78 -91 81 -315 83 -107 2 -209 -1 -227 -5z m397 -1386 c285
-50 546 -216 709 -450 137 -197 199 -396 200 -635 0 -538 -371 -982 -908
-1085 -88 -17 -280 -17 -381 1 -479 82 -852 479 -906 964 -45 406 142 804 488
1038 59 41 188 105 253 126 163 53 384 70 545 41z"/>
</g>
</svg>
